<svg viewBox="0 0 52 52" fill="none" xmlns="http://www.w3.org/2000/svg">
    <!-- Pixelated rounded container -->
    <path d="M4 0h44v2h2v2h2v44h-2v2h-2v2H4v-2H2v-2H0V4h2V2h2V0z" fill="#fee2e2"/>
    <!-- Dashed stamp border -->
    <path d="M6 4h4v2H6zM14 4h4v2h-4zM22 4h8v2h-8zM34 4h4v2h-4zM42 4h4v2h-4z" fill="#fecaca"/>
    <path d="M48 6h2v4h-2zM48 14h2v4h-2zM48 22h2v8h-2zM48 34h2v4h-2zM48 42h2v4h-2z" fill="#fecaca"/>
    <path d="M42 48h4v2h-4zM34 48h4v2h-4zM22 48h8v2h-8zM14 48h4v2h-4zM6 48h4v2H6z" fill="#fecaca"/>
    <path d="M2 42h2v4H2zM2 34h2v4H2zM2 22h2v8H2zM2 14h2v4H2zM2 6h2v4H2z" fill="#fecaca"/>
    <!-- Heart - chunky and full -->
    <!-- Top row -->
    <rect x="10" y="12" width="8" height="4" fill="#ef4444"/>
    <rect x="34" y="12" width="8" height="4" fill="#ef4444"/>
    <!-- Second row - lobes -->
    <rect x="8" y="16" width="16" height="4" fill="#ef4444"/>
    <rect x="28" y="16" width="16" height="4" fill="#ef4444"/>
    <!-- Merge row -->
    <rect x="8" y="20" width="36" height="4" fill="#dc2626"/>
    <!-- Body rows -->
    <rect x="10" y="24" width="32" height="4" fill="#dc2626"/>
    <rect x="12" y="28" width="28" height="4" fill="#b91c1c"/>
    <rect x="16" y="32" width="20" height="4" fill="#b91c1c"/>
    <rect x="20" y="36" width="12" height="4" fill="#991b1b"/>
    <rect x="24" y="40" width="4" height="4" fill="#991b1b"/>
    <!-- Highlight - top left lobe -->
    <rect x="12" y="14" width="4" height="2" fill="#f87171"/>
    <rect x="10" y="16" width="4" height="4" fill="#f87171"/>
    <rect x="10" y="20" width="2" height="2" fill="#fca5a5"/>
    <!-- Sparkle -->
    <rect x="12" y="18" width="2" height="2" fill="#ffffff"/>
</svg>
