<svg viewBox="0 0 52 52" fill="none" xmlns="http://www.w3.org/2000/svg">
    <!-- Pixelated rounded container -->
    <path d="M4 0h44v2h2v2h2v44h-2v2h-2v2H4v-2H2v-2H0V4h2V2h2V0z" fill="#c7d2fe"/>
    <!-- Dashed stamp border -->
    <path d="M6 4h4v2H6zM14 4h4v2h-4zM22 4h8v2h-8zM34 4h4v2h-4zM42 4h4v2h-4z" fill="#a5b4fc"/>
    <path d="M48 6h2v4h-2zM48 14h2v4h-2zM48 22h2v8h-2zM48 34h2v4h-2zM48 42h2v4h-2z" fill="#a5b4fc"/>
    <path d="M42 48h4v2h-4zM34 48h4v2h-4zM22 48h8v2h-8zM14 48h4v2h-4zM6 48h4v2H6z" fill="#a5b4fc"/>
    <path d="M2 42h2v4H2zM2 34h2v4H2zM2 22h2v8H2zM2 14h2v4H2zM2 6h2v4H2z" fill="#a5b4fc"/>
    <!-- Glass bowl -->
    <rect x="18" y="10" width="16" height="4" fill="#e0f2fe"/>
    <rect x="16" y="14" width="20" height="4" fill="#bae6fd"/>
    <rect x="16" y="18" width="20" height="4" fill="#fef3c7"/>
    <rect x="16" y="22" width="20" height="4" fill="#fde68a"/>
    <rect x="18" y="26" width="16" height="4" fill="#fcd34d"/>
    <rect x="20" y="30" width="12" height="2" fill="#e0f2fe"/>
    <!-- Bubbles -->
    <rect x="20" y="20" width="2" height="2" fill="#ffffff"/>
    <rect x="28" y="18" width="2" height="2" fill="#ffffff"/>
    <rect x="24" y="22" width="2" height="2" fill="#fef9c3"/>
    <!-- Stem -->
    <rect x="24" y="32" width="4" height="8" fill="#e0f2fe"/>
    <!-- Base -->
    <rect x="18" y="40" width="16" height="4" fill="#bae6fd"/>
    <rect x="20" y="44" width="12" height="2" fill="#e0f2fe"/>
    <!-- Glass highlight -->
    <rect x="18" y="14" width="2" height="8" fill="#f0f9ff"/>
</svg>
