<?xml version="1.0" encoding="utf-8"?>
<svg width="52" height="52" viewBox="0 0 52 52" fill="none" xmlns="http://www.w3.org/2000/svg">
  <g>
    <path d="M4 0L48 0L48 2L50 2L50 4L52 4L52 48L50 48L50 50L48 50L48 52L4 52L4 50L2 50L2 48L0 48L0 4L2 4L2 2L4 2L4 0L4 0Z" fill="#F8D5CF" fill-rule="evenodd" />
    <path d="M0 0L4 0L4 2L0 2L0 0ZM8 0L12 0L12 2L8 2L8 0ZM16 0L24 0L24 2L16 2L16 0ZM28 0L32 0L32 2L28 2L28 0ZM36 0L40 0L40 2L36 2L36 0Z" fill="#EB6F77" transform="translate(6 4)" />
    <path d="M0 0L2 0L2 4L0 4L0 0ZM0 8L2 8L2 12L0 12L0 8ZM0 16L2 16L2 24L0 24L0 16ZM0 28L2 28L2 32L0 32L0 28ZM0 36L2 36L2 40L0 40L0 36Z" fill="#EB6F77" transform="translate(48 6)" />
    <path d="M36 0L40 0L40 2L36 2L36 0ZM28 0L32 0L32 2L28 2L28 0ZM16 0L24 0L24 2L16 2L16 0ZM8 0L12 0L12 2L8 2L8 0ZM0 0L4 0L4 2L0 2L0 0Z" fill="#EB6F77" transform="translate(6 48)" />
    <path d="M0 36L2 36L2 40L0 40L0 36ZM0 28L2 28L2 32L0 32L0 28ZM0 16L2 16L2 24L0 24L0 16ZM0 8L2 8L2 12L0 12L0 8ZM0 0L2 0L2 4L0 4L0 0Z" fill="#EB6F77" transform="translate(2 6)" />
    <g transform="translate(10 11)">
      <rect width="3" height="3" fill="#F5E4E4" fill-rule="evenodd" />
      <rect width="3" height="3" fill="#F5E4E4" fill-rule="evenodd" transform="translate(3 0)" />
      <rect width="3" height="3" fill="#F5E4E4" fill-rule="evenodd" transform="translate(6 0)" />
      <rect width="3" height="3" fill="#FFFFFF" fill-rule="evenodd" transform="translate(9 3)" />
      <rect width="3" height="3" fill="#FFFFFF" fill-rule="evenodd" transform="translate(12 3)" />
      <rect width="3" height="3" fill="#FFFFFF" fill-rule="evenodd" transform="translate(15 3)" />
      <rect width="3" height="3" fill="#FFFFFF" fill-rule="evenodd" transform="translate(18 3)" />
      <rect width="3" height="3" fill="#FFFFFF" fill-rule="evenodd" transform="translate(21 3)" />
      <rect width="3" height="3" fill="#F5E4E4" fill-rule="evenodd" transform="translate(24 0)" />
      <rect width="3" height="3" fill="#F5E4E4" fill-rule="evenodd" transform="translate(27 0)" />
      <rect width="3" height="3" fill="#F5E4E4" fill-rule="evenodd" transform="translate(30 0)" />
      <rect width="3" height="3" fill="#F5E4E4" fill-rule="evenodd" transform="translate(0 3)" />
      <rect width="3" height="3" fill="#FFC5D3" fill-rule="evenodd" transform="translate(3 3)" />
      <rect width="3" height="3" fill="#F5E4E4" fill-rule="evenodd" transform="translate(6 3)" />
      <rect width="3" height="3" fill="#FFC5D3" fill-rule="evenodd" transform="translate(27 3)" />
      <rect width="3" height="3" fill="#F5E4E4" fill-rule="evenodd" transform="translate(30 3)" />
      <rect width="3" height="3" fill="#F5E4E4" fill-rule="evenodd" transform="translate(24 3)" />
      <rect width="3" height="3" fill="#F5E4E4" fill-rule="evenodd" transform="translate(30 6)" />
      <rect width="3" height="3" fill="#F5E4E4" fill-rule="evenodd" transform="translate(30 9)" />
      <rect width="3" height="3" fill="#F5E4E4" fill-rule="evenodd" transform="translate(0 6)" />
      <rect width="3" height="3" fill="#F5E4E4" fill-rule="evenodd" transform="translate(0 9)" />
      <rect width="3" height="3" fill="#FFC5D3" fill-rule="evenodd" transform="translate(3 6)" />
      <rect width="3" height="3" fill="#FFC5D3" fill-rule="evenodd" transform="translate(27 6)" />
      <rect width="3" height="3" fill="#FFFFFF" fill-rule="evenodd" transform="translate(6 6)" />
      <rect width="3" height="3" fill="#FFFFFF" fill-rule="evenodd" transform="translate(9 6)" />
      <rect width="3" height="3" fill="#FFFFFF" fill-rule="evenodd" transform="translate(12 6)" />
      <rect width="3" height="3" fill="#FFFFFF" fill-rule="evenodd" transform="translate(15 6)" />
      <rect width="3" height="3" fill="#FFFFFF" fill-rule="evenodd" transform="translate(18 6)" />
      <rect width="3" height="3" fill="#FFFFFF" fill-rule="evenodd" transform="translate(21 6)" />
      <rect width="3" height="3" fill="#FFFFFF" fill-rule="evenodd" transform="translate(24 6)" />
      <rect width="3" height="3" fill="#FFFFFF" fill-rule="evenodd" transform="translate(3 9)" />
      <rect width="3" height="3" fill="#FFFFFF" fill-rule="evenodd" transform="translate(6 9)" />
      <rect width="3" height="3" fill="#FFFFFF" fill-rule="evenodd" transform="translate(9 9)" />
      <rect width="3" height="3" fill="#FFFFFF" fill-rule="evenodd" transform="translate(12 9)" />
      <rect width="3" height="3" fill="#FFFFFF" fill-rule="evenodd" transform="translate(15 9)" />
      <rect width="3" height="3" fill="#FFFFFF" fill-rule="evenodd" transform="translate(18 9)" />
      <rect width="3" height="3" fill="#FFFFFF" fill-rule="evenodd" transform="translate(21 9)" />
      <rect width="3" height="3" fill="#FFFFFF" fill-rule="evenodd" transform="translate(24 9)" />
      <rect width="3" height="3" fill="#FFFFFF" fill-rule="evenodd" transform="translate(27 9)" />
      <rect width="3" height="3" fill="#895129" fill-rule="evenodd" transform="translate(0 12)" />
      <rect width="3" height="3" fill="#895129" fill-rule="evenodd" transform="translate(30 12)" />
      <rect width="3" height="3" fill="#FFFFFF" fill-rule="evenodd" transform="translate(3 12)" />
      <rect width="3" height="3" fill="#FFFFFF" fill-rule="evenodd" transform="translate(6 12)" />
      <rect width="3" height="3" fill="#895129" fill-rule="evenodd" transform="translate(9 12)" />
      <rect width="3" height="3" fill="#895129" fill-rule="evenodd" transform="translate(9 15)" />
      <rect width="3" height="3" fill="#FFFFFF" fill-rule="evenodd" transform="translate(12 12)" />
      <rect width="3" height="3" fill="#FFFFFF" fill-rule="evenodd" transform="translate(15 12)" />
      <rect width="3" height="3" fill="#FFFFFF" fill-rule="evenodd" transform="translate(18 12)" />
      <rect width="3" height="3" fill="#895129" fill-rule="evenodd" transform="translate(21 12)" />
      <rect width="3" height="3" fill="#895129" fill-rule="evenodd" transform="translate(21 15)" />
      <rect width="3" height="3" fill="#FFFFFF" fill-rule="evenodd" transform="translate(24 12)" />
      <rect width="3" height="3" fill="#FFFFFF" fill-rule="evenodd" transform="translate(27 12)" />
      <rect width="3" height="3" fill="#FFFFFF" fill-rule="evenodd" transform="translate(0 15)" />
      <rect width="3" height="3" fill="#FFFFFF" fill-rule="evenodd" transform="translate(30 15)" />
      <rect width="3" height="3" fill="#FFFFFF" fill-rule="evenodd" transform="translate(3 15)" />
      <rect width="3" height="3" fill="#FFC5D3" fill-rule="evenodd" transform="translate(6 15)" />
      <rect width="3" height="3" fill="#FFFFFF" fill-rule="evenodd" transform="translate(12 15)" />
      <rect width="3" height="3" fill="#FBBF24" fill-rule="evenodd" transform="translate(15 15)" />
      <rect width="3" height="3" fill="#FFFFFF" fill-rule="evenodd" transform="translate(18 15)" />
      <rect width="3" height="3" fill="#FFC5D3" fill-rule="evenodd" transform="translate(24 15)" />
      <rect width="3" height="3" fill="#FFFFFF" fill-rule="evenodd" transform="translate(27 15)" />
      <rect width="3" height="3" fill="#895129" fill-rule="evenodd" transform="translate(30 18)" />
      <rect width="3" height="3" fill="#895129" fill-rule="evenodd" transform="translate(0 18)" />
      <rect width="3" height="3" fill="#FFFFFF" fill-rule="evenodd" transform="translate(3 18)" />
      <rect width="3" height="3" fill="#FFFFFF" fill-rule="evenodd" transform="translate(6 18)" />
      <rect width="3" height="3" fill="#FFFFFF" fill-rule="evenodd" transform="translate(9 18)" />
      <rect width="3" height="3" fill="#FFFFFF" fill-rule="evenodd" transform="translate(12 18)" />
      <rect width="3" height="3" fill="#FFFFFF" fill-rule="evenodd" transform="translate(27 18)" />
      <rect width="3" height="3" fill="#FFFFFF" fill-rule="evenodd" transform="translate(24 18)" />
      <rect width="3" height="3" fill="#FFFFFF" fill-rule="evenodd" transform="translate(15 18)" />
      <rect width="3" height="3" fill="#FFFFFF" fill-rule="evenodd" transform="translate(18 18)" />
      <rect width="3" height="3" fill="#FFFFFF" fill-rule="evenodd" transform="translate(21 18)" />
      <rect width="3" height="3" fill="#FFFFFF" fill-rule="evenodd" transform="translate(3 21)" />
      <rect width="3" height="3" fill="#FFFFFF" fill-rule="evenodd" transform="translate(6 21)" />
      <rect width="3" height="3" fill="#FFFFFF" fill-rule="evenodd" transform="translate(9 21)" />
      <rect width="3" height="3" fill="#FFFFFF" fill-rule="evenodd" transform="translate(12 21)" />
      <rect width="3" height="3" fill="#FFFFFF" fill-rule="evenodd" transform="translate(27 21)" />
      <rect width="3" height="3" fill="#FFFFFF" fill-rule="evenodd" transform="translate(24 21)" />
      <rect width="3" height="3" fill="#FFFFFF" fill-rule="evenodd" transform="translate(15 21)" />
      <rect width="3" height="3" fill="#FFFFFF" fill-rule="evenodd" transform="translate(18 21)" />
      <rect width="3" height="3" fill="#FFFFFF" fill-rule="evenodd" transform="translate(21 21)" />
      <rect width="3" height="3" fill="#FFC5D3" fill-rule="evenodd" transform="translate(6 24)" />
      <rect width="3" height="3" fill="#FFC5D3" fill-rule="evenodd" transform="translate(9 24)" />
      <rect width="3" height="3" fill="#FFC5D3" fill-rule="evenodd" transform="translate(12 24)" />
      <rect width="3" height="3" fill="#FFC5D3" fill-rule="evenodd" transform="translate(15 24)" />
      <rect width="3" height="3" fill="#FFC5D3" fill-rule="evenodd" transform="translate(18 24)" />
      <rect width="3" height="3" fill="#FFC5D3" fill-rule="evenodd" transform="translate(21 24)" />
      <rect width="3" height="3" fill="#FFC5D3" fill-rule="evenodd" transform="translate(24 24)" />
      <rect width="3" height="3" fill="#FFC5D3" fill-rule="evenodd" transform="translate(6 27)" />
      <rect width="3" height="3" fill="#FFC5D3" fill-rule="evenodd" transform="translate(12 27)" />
      <rect width="3" height="3" fill="#FFC5D3" fill-rule="evenodd" transform="translate(15 27)" />
      <rect width="3" height="3" fill="#FFC5D3" fill-rule="evenodd" transform="translate(18 27)" />
      <rect width="3" height="3" fill="#FFC5D3" fill-rule="evenodd" transform="translate(24 27)" />
      <rect width="3" height="3" fill="#895129" fill-rule="evenodd" transform="translate(9 27)" />
      <rect width="3" height="3" fill="#895129" fill-rule="evenodd" transform="translate(21 27)" />
      <rect width="3" height="3" fill="#F9A9BD" fill-rule="evenodd" transform="translate(30 24)" />
      <rect width="3" height="3" fill="#F9A9BD" fill-rule="evenodd" transform="translate(27 27)" />
    </g>
  </g>
</svg>