<svg viewBox="0 0 52 52" fill="none" xmlns="http://www.w3.org/2000/svg">
    <!-- Pixelated rounded container -->
    <path d="M4 0h44v2h2v2h2v44h-2v2h-2v2H4v-2H2v-2H0V4h2V2h2V0z" fill="#bfdbfe"/>
    <!-- Dashed stamp border -->
    <path d="M6 4h4v2H6zM14 4h4v2h-4zM22 4h8v2h-8zM34 4h4v2h-4zM42 4h4v2h-4z" fill="#93c5fd"/>
    <path d="M48 6h2v4h-2zM48 14h2v4h-2zM48 22h2v8h-2zM48 34h2v4h-2zM48 42h2v4h-2z" fill="#93c5fd"/>
    <path d="M42 48h4v2h-4zM34 48h4v2h-4zM22 48h8v2h-8zM14 48h4v2h-4zM6 48h4v2H6z" fill="#93c5fd"/>
    <path d="M2 42h2v4H2zM2 34h2v4H2zM2 22h2v8H2zM2 14h2v4H2zM2 6h2v4H2z" fill="#93c5fd"/>
    <!-- Snowflake - 6-pointed with branches -->
    <!-- Center -->
    <rect x="24" y="24" width="4" height="4" fill="#2563eb"/>
    <!-- Vertical arm -->
    <rect x="24" y="10" width="4" height="14" fill="#3b82f6"/>
    <rect x="24" y="28" width="4" height="14" fill="#3b82f6"/>
    <!-- Horizontal arm -->
    <rect x="10" y="24" width="14" height="4" fill="#3b82f6"/>
    <rect x="28" y="24" width="14" height="4" fill="#3b82f6"/>
    <!-- Top branches -->
    <rect x="20" y="14" width="4" height="4" fill="#60a5fa"/>
    <rect x="28" y="14" width="4" height="4" fill="#60a5fa"/>
    <!-- Bottom branches -->
    <rect x="20" y="34" width="4" height="4" fill="#60a5fa"/>
    <rect x="28" y="34" width="4" height="4" fill="#60a5fa"/>
    <!-- Left branches -->
    <rect x="14" y="20" width="4" height="4" fill="#60a5fa"/>
    <rect x="14" y="28" width="4" height="4" fill="#60a5fa"/>
    <!-- Right branches -->
    <rect x="34" y="20" width="4" height="4" fill="#60a5fa"/>
    <rect x="34" y="28" width="4" height="4" fill="#60a5fa"/>
    <!-- Diagonal arms (6-point effect) -->
    <rect x="16" y="16" width="4" height="4" fill="#3b82f6"/>
    <rect x="32" y="16" width="4" height="4" fill="#3b82f6"/>
    <rect x="16" y="32" width="4" height="4" fill="#3b82f6"/>
    <rect x="32" y="32" width="4" height="4" fill="#3b82f6"/>
    <!-- Outer diagonal tips -->
    <rect x="12" y="12" width="4" height="4" fill="#60a5fa"/>
    <rect x="36" y="12" width="4" height="4" fill="#60a5fa"/>
    <rect x="12" y="36" width="4" height="4" fill="#60a5fa"/>
    <rect x="36" y="36" width="4" height="4" fill="#60a5fa"/>
    <!-- Arm tips -->
    <rect x="22" y="8" width="8" height="2" fill="#93c5fd"/>
    <rect x="22" y="42" width="8" height="2" fill="#93c5fd"/>
    <rect x="8" y="22" width="2" height="8" fill="#93c5fd"/>
    <rect x="42" y="22" width="2" height="8" fill="#93c5fd"/>
</svg>
