<svg viewBox="0 0 52 52" fill="none" xmlns="http://www.w3.org/2000/svg">
    <!-- Pixelated rounded container -->
    <path d="M4 0h44v2h2v2h2v44h-2v2h-2v2H4v-2H2v-2H0V4h2V2h2V0z" fill="#fef3c7"/>
    <!-- Dashed stamp border -->
    <path d="M6 4h4v2H6zM14 4h4v2h-4zM22 4h8v2h-8zM34 4h4v2h-4zM42 4h4v2h-4z" fill="#fde68a"/>
    <path d="M48 6h2v4h-2zM48 14h2v4h-2zM48 22h2v8h-2zM48 34h2v4h-2zM48 42h2v4h-2z" fill="#fde68a"/>
    <path d="M42 48h4v2h-4zM34 48h4v2h-4zM22 48h8v2h-8zM14 48h4v2h-4zM6 48h4v2H6z" fill="#fde68a"/>
    <path d="M2 42h2v4H2zM2 34h2v4H2zM2 22h2v8H2zM2 14h2v4H2zM2 6h2v4H2z" fill="#fde68a"/>
    <!-- Star body -->
    <rect x="24" y="8" width="4" height="4" fill="#fbbf24"/>
    <rect x="22" y="12" width="8" height="4" fill="#fbbf24"/>
    <rect x="10" y="16" width="32" height="4" fill="#fbbf24"/>
    <rect x="14" y="20" width="24" height="4" fill="#f59e0b"/>
    <rect x="16" y="24" width="20" height="4" fill="#f59e0b"/>
    <rect x="18" y="28" width="16" height="4" fill="#fbbf24"/>
    <rect x="14" y="32" width="8" height="4" fill="#fbbf24"/>
    <rect x="30" y="32" width="8" height="4" fill="#fbbf24"/>
    <rect x="10" y="36" width="8" height="4" fill="#f59e0b"/>
    <rect x="34" y="36" width="8" height="4" fill="#f59e0b"/>
    <rect x="8" y="40" width="6" height="4" fill="#fbbf24"/>
    <rect x="38" y="40" width="6" height="4" fill="#fbbf24"/>
    <!-- Sparkle -->
    <rect x="26" y="18" width="2" height="2" fill="#ffffff"/>
</svg>
