<svg viewBox="0 0 52 52" fill="none" xmlns="http://www.w3.org/2000/svg">
    <!-- Pixelated rounded container -->
    <path d="M4 0h44v2h2v2h2v44h-2v2h-2v2H4v-2H2v-2H0V4h2V2h2V0z" fill="#e0f2fe"/>
    <!-- Dashed stamp border -->
    <path d="M6 4h4v2H6zM14 4h4v2h-4zM22 4h8v2h-8zM34 4h4v2h-4zM42 4h4v2h-4z" fill="#bae6fd"/>
    <path d="M48 6h2v4h-2zM48 14h2v4h-2zM48 22h2v8h-2zM48 34h2v4h-2zM48 42h2v4h-2z" fill="#bae6fd"/>
    <path d="M42 48h4v2h-4zM34 48h4v2h-4zM22 48h8v2h-8zM14 48h4v2h-4zM6 48h4v2H6z" fill="#bae6fd"/>
    <path d="M2 42h2v4H2zM2 34h2v4H2zM2 22h2v8H2zM2 14h2v4H2zM2 6h2v4H2z" fill="#bae6fd"/>
    <!-- Hat -->
    <rect x="22" y="6" width="8" height="4" fill="#1f2937"/>
    <rect x="20" y="10" width="12" height="2" fill="#374151"/>
    <!-- Head -->
    <rect x="20" y="12" width="12" height="4" fill="#ffffff"/>
    <rect x="18" y="16" width="16" height="8" fill="#ffffff"/>
    <!-- Eyes -->
    <rect x="20" y="18" width="2" height="2" fill="#1f2937"/>
    <rect x="28" y="18" width="2" height="2" fill="#1f2937"/>
    <!-- Carrot nose -->
    <rect x="24" y="20" width="4" height="2" fill="#f97316"/>
    <rect x="26" y="22" width="2" height="2" fill="#ea580c"/>
    <!-- Smile -->
    <rect x="22" y="22" width="2" height="2" fill="#1f2937"/>
    <rect x="28" y="22" width="2" height="2" fill="#1f2937"/>
    <!-- Scarf -->
    <rect x="16" y="24" width="20" height="4" fill="#3b82f6"/>
    <rect x="14" y="28" width="6" height="6" fill="#2563eb"/>
    <rect x="14" y="34" width="4" height="4" fill="#3b82f6"/>
    <!-- Body -->
    <rect x="16" y="28" width="20" height="4" fill="#ffffff"/>
    <rect x="14" y="32" width="24" height="8" fill="#ffffff"/>
    <rect x="16" y="40" width="20" height="6" fill="#f8fafc"/>
    <!-- Buttons -->
    <rect x="24" y="34" width="4" height="2" fill="#1f2937"/>
    <rect x="24" y="38" width="4" height="2" fill="#1f2937"/>
    <rect x="24" y="42" width="4" height="2" fill="#1f2937"/>
    <!-- Cheek blush -->
    <rect x="18" y="20" width="2" height="2" fill="#fecaca"/>
    <rect x="30" y="20" width="2" height="2" fill="#fecaca"/>
    <!-- Snow highlight -->
    <rect x="20" y="14" width="2" height="2" fill="#f8fafc"/>
    <rect x="18" y="34" width="2" height="2" fill="#f8fafc"/>
</svg>
