<svg viewBox="0 0 52 52" fill="none" xmlns="http://www.w3.org/2000/svg">
    <!-- Pixelated rounded container -->
    <path d="M4 0h44v2h2v2h2v44h-2v2h-2v2H4v-2H2v-2H0V4h2V2h2V0z" fill="#dc2626"/>
    <!-- Dashed stamp border -->
    <path d="M6 4h4v2H6zM14 4h4v2h-4zM22 4h8v2h-8zM34 4h4v2h-4zM42 4h4v2h-4z" fill="#991b1b"/>
    <path d="M48 6h2v4h-2zM48 14h2v4h-2zM48 22h2v8h-2zM48 34h2v4h-2zM48 42h2v4h-2z" fill="#991b1b"/>
    <path d="M42 48h4v2h-4zM34 48h4v2h-4zM22 48h8v2h-8zM14 48h4v2h-4zM6 48h4v2H6z" fill="#991b1b"/>
    <path d="M2 42h2v4H2zM2 34h2v4H2zM2 22h2v8H2zM2 14h2v4H2zM2 6h2v4H2z" fill="#991b1b"/>
    <!-- Box body -->
    <rect x="10" y="22" width="32" height="22" fill="#22c55e"/>
    <rect x="10" y="22" width="32" height="4" fill="#16a34a"/>
    <!-- Ribbon vertical -->
    <rect x="24" y="22" width="4" height="22" fill="#fbbf24"/>
    <!-- Ribbon horizontal -->
    <rect x="10" y="22" width="32" height="4" fill="#fbbf24"/>
    <!-- Bow -->
    <rect x="18" y="12" width="6" height="10" fill="#fbbf24"/>
    <rect x="28" y="12" width="6" height="10" fill="#fbbf24"/>
    <rect x="24" y="14" width="4" height="8" fill="#f59e0b"/>
    <rect x="16" y="14" width="4" height="4" fill="#fbbf24"/>
    <rect x="32" y="14" width="4" height="4" fill="#fbbf24"/>
</svg>
