<svg viewBox="0 0 52 52" fill="none" xmlns="http://www.w3.org/2000/svg">
    <!-- Pixelated rounded container -->
    <path d="M4 0h44v2h2v2h2v44h-2v2h-2v2H4v-2H2v-2H0V4h2V2h2V0z" fill="#fecaca"/>
    <!-- Dashed stamp border -->
    <path d="M6 4h4v2H6zM14 4h4v2h-4zM22 4h8v2h-8zM34 4h4v2h-4zM42 4h4v2h-4z" fill="#fca5a5"/>
    <path d="M48 6h2v4h-2zM48 14h2v4h-2zM48 22h2v8h-2zM48 34h2v4h-2zM48 42h2v4h-2z" fill="#fca5a5"/>
    <path d="M42 48h4v2h-4zM34 48h4v2h-4zM22 48h8v2h-8zM14 48h4v2h-4zM6 48h4v2H6z" fill="#fca5a5"/>
    <path d="M2 42h2v4H2zM2 34h2v4H2zM2 22h2v8H2zM2 14h2v4H2zM2 6h2v4H2z" fill="#fca5a5"/>
    <!-- Mug body -->
    <rect x="12" y="18" width="20" height="4" fill="#dc2626"/>
    <rect x="12" y="22" width="20" height="16" fill="#ef4444"/>
    <rect x="12" y="38" width="20" height="4" fill="#dc2626"/>
    <!-- Handle -->
    <rect x="32" y="22" width="4" height="4" fill="#dc2626"/>
    <rect x="36" y="24" width="4" height="12" fill="#ef4444"/>
    <rect x="32" y="34" width="4" height="4" fill="#dc2626"/>
    <!-- Cream/foam -->
    <rect x="14" y="12" width="16" height="6" fill="#fef3c7"/>
    <rect x="16" y="10" width="12" height="4" fill="#ffffff"/>
    <!-- Marshmallows -->
    <rect x="16" y="14" width="4" height="4" fill="#ffffff"/>
    <rect x="24" y="14" width="4" height="4" fill="#ffffff"/>
    <rect x="20" y="12" width="4" height="4" fill="#fef3c7"/>
    <!-- Mug highlight -->
    <rect x="14" y="24" width="2" height="8" fill="#f87171"/>
</svg>
